<svg aria-hidden="true" style="position: absolute; width: 0; height: 0; overflow: hidden;" version="1.1" xmlns="http://www.w3.org/2000/svg" xmlns:xlink="http://www.w3.org/1999/xlink">
<defs>
<symbol id="icon-copy" viewBox="0 0 32 32">
<path fill="#fff" style="fill: var(--color1, #fff)" d="M21.333 21.333v5.333c0 1.536-1.13 2.667-2.667 2.667h-13.333c-1.536 0-2.667-1.13-2.667-2.667v-13.333c0-1.536 1.13-2.667 2.667-2.667h5.333v-5.333c0-1.536 1.13-2.667 2.667-2.667h13.333c1.536 0 2.667 1.13 2.667 2.667v13.333c0 1.536-1.13 2.667-2.667 2.667h-5.333zM18.667 21.333h-5.333c-1.536 0-2.667-1.13-2.667-2.667v-5.333h-5.333v13.333h13.333v-5.333zM13.333 5.333v13.333h13.333v-13.333h-13.333z"></path>
</symbol>
<symbol id="icon-trash" viewBox="0 0 32 32">
<path fill="#fff" style="fill: var(--color1, #fff)" d="M27 4h-6v-2c0-1.105-0.895-2-2-2h-6c-1.105 0-2 0.895-2 2v2h-6c-1.105 0-2 0.895-2 2v2c0 1.104 0.895 1.999 1.998 2h22.003c1.104-0.001 1.999-0.896 1.999-2v-2c0-1.105-0.895-2-2-2zM19 4h-6v-1c0-0.552 0.448-1 1-1h4c0.552 0 1 0.448 1 1v1zM5 28c0 2.209 1.791 4 4 4h14c2.209 0 4-1.791 4-4v-16h-22v16zM20 15c0-0.552 0.448-1 1-1s1 0.448 1 1v12c0 0.552-0.448 1-1 1s-1-0.448-1-1v-12zM15 15c0-0.552 0.448-1 1-1s1 0.448 1 1v12c0 0.552-0.448 1-1 1s-1-0.448-1-1v-12zM10 15c0-0.552 0.448-1 1-1s1 0.448 1 1v12c0 0.552-0.448 1-1 1s-1-0.448-1-1v-12z"></path>
</symbol>
</defs>
</svg>
